TITLE ""
FILE "P1Q_j_1777-1790.mp3" MP3
  TRACK 01 AUDIO
    TITLE "P1Q_j_1777-1790_01"
    INDEX 01 00:00:00
  TRACK 02 AUDIO
    TITLE "P1Q_j_1777-1790_02"
    INDEX 01 00:01:35
  TRACK 03 AUDIO
    TITLE "P1Q_j_1777-1790_03"
    INDEX 01 00:01:57
  TRACK 04 AUDIO
    TITLE "P1Q_j_1777-1790_04"
    INDEX 01 00:04:02
  TRACK 05 AUDIO
    TITLE "P1Q_j_1777-1790_05"
    INDEX 01 00:04:22
  TRACK 06 AUDIO
    TITLE "P1Q_j_1777-1790_06"
    INDEX 01 00:07:48
  TRACK 07 AUDIO
    TITLE "P1Q_j_1777-1790_07"
    INDEX 01 00:08:20
  TRACK 08 AUDIO
    TITLE "P1Q_j_1777-1790_08"
    INDEX 01 00:09:72
  TRACK 09 AUDIO
    TITLE "P1Q_j_1777-1790_09"
    INDEX 01 00:10:19
  TRACK 10 AUDIO
    TITLE "P1Q_j_1777-1790_10"
    INDEX 01 00:12:08
  TRACK 11 AUDIO
    TITLE "P1Q_j_1777-1790_11"
    INDEX 01 00:12:27
  TRACK 12 AUDIO
    TITLE "P1Q_j_1777-1790_12"
    INDEX 01 00:15:10
  TRACK 13 AUDIO
    TITLE "P1Q_j_1777-1790_13"
    INDEX 01 00:15:55
  TRACK 14 AUDIO
    TITLE "P1Q_j_1777-1790_14"
    INDEX 01 00:17:01
  TRACK 15 AUDIO
    TITLE "P1Q_j_1777-1790_15"
    INDEX 01 00:17:26
  TRACK 16 AUDIO
    TITLE "P1Q_j_1777-1790_16"
    INDEX 01 00:20:60
  TRACK 17 AUDIO
    TITLE "P1Q_j_1777-1790_17"
    INDEX 01 00:21:05
  TRACK 18 AUDIO
    TITLE "P1Q_j_1777-1790_18"
    INDEX 01 00:24:34
  TRACK 19 AUDIO
    TITLE "P1Q_j_1777-1790_19"
    INDEX 01 00:25:06
  TRACK 20 AUDIO
    TITLE "P1Q_j_1777-1790_20"
    INDEX 01 00:26:45
  TRACK 21 AUDIO
    TITLE "P1Q_j_1777-1790_21"
    INDEX 01 00:26:63
  TRACK 22 AUDIO
    TITLE "P1Q_j_1777-1790_22"
    INDEX 01 00:30:17
  TRACK 23 AUDIO
    TITLE "P1Q_j_1777-1790_23"
    INDEX 01 00:30:37
  TRACK 24 AUDIO
    TITLE "P1Q_j_1777-1790_24"
    INDEX 01 00:34:27
  TRACK 25 AUDIO
    TITLE "P1Q_j_1777-1790_25"
    INDEX 01 00:34:72
  TRACK 26 AUDIO
    TITLE "P1Q_j_1777-1790_26"
    INDEX 01 00:36:08
  TRACK 27 AUDIO
    TITLE "P1Q_j_1777-1790_27"
    INDEX 01 00:36:30
  TRACK 28 AUDIO
    TITLE "P1Q_j_1777-1790_28"
    INDEX 01 00:41:09
  TRACK 29 AUDIO
    TITLE "P1Q_j_1777-1790_29"
    INDEX 01 00:41:29
  TRACK 30 AUDIO
    TITLE "P1Q_j_1777-1790_30"
    INDEX 01 00:47:69
  TRACK 31 AUDIO
    TITLE "P1Q_j_1777-1790_31"
    INDEX 01 00:48:43
  TRACK 32 AUDIO
    TITLE "P1Q_j_1777-1790_32"
    INDEX 01 00:49:75
  TRACK 33 AUDIO
    TITLE "P1Q_j_1777-1790_33"
    INDEX 01 00:50:20
  TRACK 34 AUDIO
    TITLE "P1Q_j_1777-1790_34"
    INDEX 01 00:53:65
  TRACK 35 AUDIO
    TITLE "P1Q_j_1777-1790_35"
    INDEX 01 00:54:10
  TRACK 36 AUDIO
    TITLE "P1Q_j_1777-1790_36"
    INDEX 01 00:58:70
  TRACK 37 AUDIO
    TITLE "P1Q_j_1777-1790_37"
    INDEX 01 00:59:42
  TRACK 38 AUDIO
    TITLE "P1Q_j_1777-1790_38"
    INDEX 01 01:02:07
  TRACK 39 AUDIO
    TITLE "P1Q_j_1777-1790_39"
    INDEX 01 01:02:27
  TRACK 40 AUDIO
    TITLE "P1Q_j_1777-1790_40"
    INDEX 01 01:04:40
  TRACK 41 AUDIO
    TITLE "P1Q_j_1777-1790_41"
    INDEX 01 01:04:59
  TRACK 42 AUDIO
    TITLE "P1Q_j_1777-1790_42"
    INDEX 01 01:08:57
  TRACK 43 AUDIO
    TITLE "P1Q_j_1777-1790_43"
    INDEX 01 01:09:27
  TRACK 44 AUDIO
    TITLE "P1Q_j_1777-1790_44"
    INDEX 01 01:11:57
  TRACK 45 AUDIO
    TITLE "P1Q_j_1777-1790_45"
    INDEX 01 01:12:04
  TRACK 46 AUDIO
    TITLE "P1Q_j_1777-1790_46"
    INDEX 01 01:14:09
  TRACK 47 AUDIO
    TITLE "P1Q_j_1777-1790_47"
    INDEX 01 01:14:28
  TRACK 48 AUDIO
    TITLE "P1Q_j_1777-1790_48"
    INDEX 01 01:17:31
  TRACK 49 AUDIO
    TITLE "P1Q_j_1777-1790_49"
    INDEX 01 01:18:01
  TRACK 50 AUDIO
    TITLE "P1Q_j_1777-1790_50"
    INDEX 01 01:19:22
  TRACK 51 AUDIO
    TITLE "P1Q_j_1777-1790_51"
    INDEX 01 01:19:43
  TRACK 52 AUDIO
    TITLE "P1Q_j_1777-1790_52"
    INDEX 01 01:20:64
  TRACK 53 AUDIO
    TITLE "P1Q_j_1777-1790_53"
    INDEX 01 01:21:13
  TRACK 54 AUDIO
    TITLE "P1Q_j_1777-1790_54"
    INDEX 01 01:25:40
  TRACK 55 AUDIO
    TITLE "P1Q_j_1777-1790_55"
    INDEX 01 01:26:10
  TRACK 56 AUDIO
    TITLE "P1Q_j_1777-1790_56"
    INDEX 01 01:27:41
  TRACK 57 AUDIO
    TITLE "P1Q_j_1777-1790_57"
    INDEX 01 01:27:62
  TRACK 58 AUDIO
    TITLE "P1Q_j_1777-1790_58"
    INDEX 01 01:30:14
  TRACK 59 AUDIO
    TITLE "P1Q_j_1777-1790_59"
    INDEX 01 01:30:33
  TRACK 60 AUDIO
    TITLE "P1Q_j_1777-1790_60"
    INDEX 01 01:34:07
  TRACK 61 AUDIO
    TITLE "P1Q_j_1777-1790_61"
    INDEX 01 01:34:54
  TRACK 62 AUDIO
    TITLE "P1Q_j_1777-1790_62"
    INDEX 01 01:36:24
  TRACK 63 AUDIO
    TITLE "P1Q_j_1777-1790_63"
    INDEX 01 01:36:46
  TRACK 64 AUDIO
    TITLE "P1Q_j_1777-1790_64"
    INDEX 01 01:39:36
  TRACK 65 AUDIO
    TITLE "P1Q_j_1777-1790_65"
    INDEX 01 01:39:54
  TRACK 66 AUDIO
    TITLE "P1Q_j_1777-1790_66"
    INDEX 01 01:43:75
  TRACK 67 AUDIO
    TITLE "P1Q_j_1777-1790_67"
    INDEX 01 01:44:45
  TRACK 68 AUDIO
    TITLE "P1Q_j_1777-1790_68"
    INDEX 01 01:45:74
  TRACK 69 AUDIO
    TITLE "P1Q_j_1777-1790_69"
    INDEX 01 01:46:20
  TRACK 70 AUDIO
    TITLE "P1Q_j_1777-1790_70"
    INDEX 01 01:51:14
  TRACK 71 AUDIO
    TITLE "P1Q_j_1777-1790_71"
    INDEX 01 01:51:33
  TRACK 72 AUDIO
    TITLE "P1Q_j_1777-1790_72"
    INDEX 01 01:56:23
  TRACK 73 AUDIO
    TITLE "P1Q_j_1777-1790_73"
    INDEX 01 01:56:70
  TRACK 74 AUDIO
    TITLE "P1Q_j_1777-1790_74"
    INDEX 01 01:58:26
  TRACK 75 AUDIO
    TITLE "P1Q_j_1777-1790_75"
    INDEX 01 01:58:45
  TRACK 76 AUDIO
    TITLE "P1Q_j_1777-1790_76"
    INDEX 01 02:01:32
  TRACK 77 AUDIO
    TITLE "P1Q_j_1777-1790_77"
    INDEX 01 02:01:51
  TRACK 78 AUDIO
    TITLE "P1Q_j_1777-1790_78"
    INDEX 01 02:05:35
  TRACK 79 AUDIO
    TITLE "P1Q_j_1777-1790_79"
    INDEX 01 02:06:06
  TRACK 80 AUDIO
    TITLE "P1Q_j_1777-1790_80"
    INDEX 01 02:07:21
  TRACK 81 AUDIO
    TITLE "P1Q_j_1777-1790_81"
    INDEX 01 02:07:42
  TRACK 82 AUDIO
    TITLE "P1Q_j_1777-1790_82"
    INDEX 01 02:12:24
  TRACK 83 AUDIO
    TITLE "P1Q_j_1777-1790_83"
    INDEX 01 02:12:43
  TRACK 84 AUDIO
    TITLE "P1Q_j_1777-1790_84"
    INDEX 01 02:16:06
